<svg version="1.1"
     xmlns="http://www.w3.org/2000/svg" xmlns:xlink="http://www.w3.org/1999/xlink" xmlns:a="http://ns.adobe.com/AdobeSVGViewerExtensions/3.0/"
     x="0px" y="0px" width="500px" height="500px" viewBox="0 0 500 500"
     xml:space="preserve">
<style type="text/css">
    .st0{fill:#E2231A;}
    .st1{fill:#FFFFFF;}
</style>
<defs>
</defs>
<g>
    <rect class="st0" width="500" height="500"/>
    <path class="st1" d="M126.9,271.9c0,22.5,16.5,31.3,37,31.3c22.4,0,30.8-11,30.8-22.1c0-11.2-6.1-15.7-12-18
        c-10.2-3.9-23.5-6.5-43.5-12.1c-24.9-6.7-32.3-21.9-32.3-37c0-29.2,27-42.9,53.3-42.9c30.4,0,56,16.1,56,46.6h-25.5
        c-1.2-18.8-13.9-25.7-31.5-25.7c-11.8,0-26.8,4.3-26.8,19c0,10.2,6.9,15.9,17.4,18.8c2.2,0.6,34.5,9,42.1,11.2
        c19.2,5.7,28.4,22.1,28.4,37.1c0,32.7-29,45.8-58,45.8c-33.3,0-60.3-15.9-60.9-52.1H126.9z"/>
    <path class="st1" d="M327.2,359h-23.3v-52.7h-0.4c-7.3,11.6-21.9,16.5-35.4,16.5c-31.3,0-45.6-26.8-45.6-55.2
        c0-30.8,16.1-56.2,49.4-56.2c13.5,0,26.2,5.1,32.7,17.2h0.4v-24.7h22.1V359z M275.1,304.5c20.2,0,29.6-15.1,29.6-37.2
        c0-22.9-10.2-37.4-29.6-37.4c-19.2,0-29.2,18.2-29.2,37.4C245.9,285.7,253.9,304.5,275.1,304.5"/>
    <path class="st1" d="M332.3,202.7c19.7,0.2,38.2-6.5,41.7-23.7h19v143h-25.5V221.1h-35.2V202.7z"/>
</g>
</svg>
